<?xml version="1.0" encoding="UTF-8"?>
<!DOCTYPE svg PUBLIC "-//W3C//DTD SVG 1.1//EN" "http://www.w3.org/Graphics/SVG/1.1/DTD/svg11.dtd">
<svg xmlns="http://www.w3.org/2000/svg" version="1.1" width="552px" height="552px" style="shape-rendering:geometricPrecision; text-rendering:geometricPrecision; image-rendering:optimizeQuality; fill-rule:evenodd; clip-rule:evenodd" xmlns:xlink="http://www.w3.org/1999/xlink">
<g><path style="opacity:0.292" fill="#020202" d="M 271.5,2.5 C 277.233,1.89507 282.566,3.06174 287.5,6C 323.749,27.0405 359.915,48.2072 396,69.5C 397.751,71.4899 398.751,73.8232 399,76.5C 399.333,119.833 399.667,163.167 400,206.5C 436.5,227.667 473,248.833 509.5,270C 511.378,271.543 512.878,273.376 514,275.5C 515.146,298.619 515.646,321.785 515.5,345C 515.646,368.215 515.146,391.381 514,414.5C 512.5,417.333 510.333,419.5 507.5,421C 472.833,441 438.167,461 403.5,481C 397.446,485.445 391.113,486.111 384.5,483C 348.562,461.781 312.396,440.947 276,420.5C 241.434,440.2 206.934,460.033 172.5,480C 168.484,482.26 164.317,484.093 160,485.5C 157.553,484.594 155.053,483.761 152.5,483C 115.833,461.667 79.1667,440.333 42.5,419C 40.6217,417.457 39.1217,415.624 38,413.5C 36.3597,369.205 36.0263,324.871 37,280.5C 37.7303,274.864 40.5637,270.697 45.5,268C 81.0817,247.626 116.582,227.126 152,206.5C 152.333,163.833 152.667,121.167 153,78.5C 154.226,71.6063 158.06,66.773 164.5,64C 200.262,43.4592 235.928,22.9592 271.5,2.5 Z"/></g>
<g><path style="opacity:1" fill="#fefefe" d="M 274.5,15.5 C 277.691,16.0922 280.691,17.2589 283.5,19C 317.749,38.7071 351.915,58.5404 386,78.5C 386.833,121.171 386.667,163.837 385.5,206.5C 348.918,227.374 312.418,248.374 276,269.5C 239.751,248.626 203.585,227.626 167.5,206.5C 166.333,163.837 166.167,121.171 167,78.5C 202.814,57.3474 238.648,36.3474 274.5,15.5 Z"/></g>
<g><path style="opacity:1" fill="#fdfdfd" d="M 158.5,217.5 C 195.695,238 232.695,259 269.5,280.5C 270.833,323.167 270.833,365.833 269.5,408.5C 232.902,429.381 196.402,450.381 160,471.5C 123.271,450.886 86.7712,429.886 50.5,408.5C 49.1667,365.833 49.1667,323.167 50.5,280.5C 86.8911,259.978 122.891,238.978 158.5,217.5 Z"/></g>
<g><path style="opacity:1" fill="#fefefe" d="M 391.5,217.5 C 428.112,238.476 464.779,259.476 501.5,280.5C 502.667,323.163 502.833,365.829 502,408.5C 465.544,429.642 429.044,450.642 392.5,471.5C 355.629,451.148 319.129,430.148 283,408.5C 282.167,365.829 282.333,323.163 283.5,280.5C 319.563,259.473 355.563,238.473 391.5,217.5 Z"/></g>
</svg>
